<svg xmlns="http://www.w3.org/2000/svg" width="2666.667" height="2666.667">
  <defs>
    <clipPath id="a" clipPathUnits="userSpaceOnUse">
      <path d="M-1161.036 911.924h2000v-2000h-2000Z"/>
    </clipPath>
    <clipPath id="b" clipPathUnits="userSpaceOnUse">
      <path d="M-550.26 880.382h2000v-2000h-2000Z"/>
    </clipPath>
    <clipPath id="c" clipPathUnits="userSpaceOnUse">
      <path d="M-900.968 1008.295h2000v-2000h-2000Z"/>
    </clipPath>
    <clipPath id="d" clipPathUnits="userSpaceOnUse">
      <path d="M-1429.872 872.45h2000v-2000h-2000Z"/>
    </clipPath>
    <clipPath id="e" clipPathUnits="userSpaceOnUse">
      <path d="M-1779.856 897.379h2000v-2000h-2000Z"/>
    </clipPath>
  </defs>
  <path d="M0 0c-12.999 25.43-38.968 39.901-65.73 39.474-26.766.427-52.713-14.044-65.734-39.474l-59.176-115.616c-18.255-35.665-4.142-79.356 31.502-97.616 29.791-15.25 65.194-7.913 86.683 15.715l-29.328 56.434a4.901 4.901 0 0 0 2.098 6.631c2.415 1.245 5.406.297 6.631-2.136l23.105-45.12c1.246-2.415 2.583-4.737 4.068-6.948l.114-.223h.018c20.115-30.315 60.233-41.331 93.405-24.353 35.644 18.26 49.761 61.951 31.502 97.616L-.018 0Z" clip-path="url(#a)" style="fill:#fbf390;fill-opacity:1;fill-rule:nonzero;stroke:none" transform="matrix(1.33333 0 0 -1.33333 1548.048 1215.898)"/>
  <path d="M0 0c-29.791 15.251-65.193 7.913-86.682-15.715l29.309-56.415a4.902 4.902 0 0 0-2.099-6.631 4.974 4.974 0 0 0-2.266-.558 4.943 4.943 0 0 0-4.383 2.675l-22.846 44.657c-.371.761-.78 1.523-1.189 2.266-.334.576-.65 1.17-1.003 1.746-.278.483-.557.966-.835 1.43-.112.186-.223.372-.335.539-.316.539-.65 1.059-1.003 1.56l-.056.093h-.018a68.991 68.991 0 0 1-8.637 10.644 62.574 62.574 0 0 1-3.25 3.102c-.539.502-1.096.985-1.672 1.468l-.037.037c-.539.446-1.096.91-1.672 1.356-.037.037-.074.074-.111.093-.465.371-.947.743-1.43 1.096-.539.408-1.078.799-1.616 1.189a73.15 73.15 0 0 1-4.161 2.73c-.167.093-.334.205-.501.298-.632.371-1.263.743-1.895 1.095-.761.428-1.541.836-2.321 1.245-.818.427-1.653.817-2.471 1.208-.427.204-.854.39-1.281.575a57.82 57.82 0 0 1-1.598.688c-.501.204-.984.408-1.485.594-.873.353-1.765.669-2.656.966-.613.223-1.226.409-1.839.613-.706.223-1.412.427-2.118.632a65.96 65.96 0 0 1-6.445 1.504c-1.449.26-2.897.483-4.364.669-.558.056-1.096.13-1.654.186-2.47.241-4.922.353-7.373.353-.632 0-1.282-.019-1.914-.037a40.933 40.933 0 0 1-2.098-.093c-1.096-.075-2.192-.149-3.269-.26-.613-.075-1.226-.149-1.82-.223-.595-.075-1.189-.167-1.784-.242-.092-.037-.185-.037-.278-.056-.557-.092-1.096-.185-1.653-.278a67.293 67.293 0 0 1-7.299-1.746 33.289 33.289 0 0 1-1.802-.558 48.035 48.035 0 0 1-1.765-.594 35.716 35.716 0 0 1-1.671-.594c-.112-.038-.205-.075-.298-.112-.52-.204-1.04-.409-1.541-.613a90.168 90.168 0 0 1-3.418-1.486c-.798-.39-1.578-.762-2.34-1.17a68.206 68.206 0 0 1-2.024-1.078 61.1 61.1 0 0 1-2.415-1.393 42.626 42.626 0 0 1-2.155-1.374c-.018 0-.055 0-.074-.038a31.593 31.593 0 0 1-1.634-1.114 60.134 60.134 0 0 1-3.771-2.805 34.818 34.818 0 0 1-1.337-1.096 70.934 70.934 0 0 1-7.04-6.743l29.31-56.415a4.902 4.902 0 0 0-2.099-6.631 4.899 4.899 0 0 0-2.248-.558c-1.783 0-3.51.985-4.383 2.675l-23.106 45.121c-1.244 2.415-2.581 4.737-4.067 6.947l-.112.223h-.018C-234.25 5.963-274.35 16.978-307.523 0c-35.643-18.26-49.759-61.95-31.501-97.616l59.176-115.616c13.001-25.43 38.967-39.9 65.732-39.473 23.458-.371 46.304 10.7 60.345 30.576 14.042-19.876 36.906-30.947 60.365-30.576 26.765-.427 52.712 14.043 65.732 39.473L31.503-97.616C49.761-61.95 35.645-18.26 0 0" clip-path="url(#b)" style="fill:#fbf390;fill-opacity:1;fill-rule:nonzero;stroke:none" transform="matrix(1.33333 0 0 -1.33333 733.68 1173.843)"/>
  <path d="M0 0c28.754-28.755 29.291-76.365 0-104.582-28.38-27.306-73.495-27.009-101.485.911l-64.264 64.29a4.958 4.958 0 0 1-7.005 0 4.943 4.943 0 0 1-.018-7.003l43.036-43.077c-12.889-21.566-36.664-35.888-63.745-35.368-39.71.761-71.081 34.179-71.081 73.913V92.861c0 23.795 19.279 43.077 43.072 43.077h170.413c40.081 0 74.109-32.805 73.903-72.892-.11-23.368-11.29-44.136-28.563-57.325Z" clip-path="url(#c)" style="fill:#fbf390;fill-opacity:1;fill-rule:nonzero;stroke:none" transform="matrix(1.33333 0 0 -1.33333 1201.29 1344.393)"/>
  <path d="M0 0c-3.363 0-9.956.093-9.956.093h-101.43c-23.793 0-43.073-19.282-43.073-43.077v-145.449c0-19.95 8.079-38.024 21.155-51.102 13.076-13.077 31.15-21.158 51.098-21.158 39.913 0 72.25 32.359 72.25 72.26v67.467a4.977 4.977 0 0 0 4.977 4.979 4.9 4.9 0 0 0 3.512-1.468A4.898 4.898 0 0 0 0-120.966v-49.263c23.495 0 44.781 9.53 60.177 24.929 15.399 15.399 24.928 36.687 24.928 60.186 0 23.498-9.529 44.786-24.928 60.185C44.781-9.529 23.495 0 0 0" clip-path="url(#d)" style="fill:#fbf390;fill-opacity:1;fill-rule:nonzero;stroke:none" transform="matrix(1.33333 0 0 -1.33333 1906.496 1163.267)"/>
  <path d="M0 0c-15.417 15.399-36.685 24.929-60.18 24.929-3.363 0-9.956.093-9.956.093h-101.449c-23.774 0-43.072-19.301-43.072-43.078v-145.448c0-19.969 8.081-38.025 21.176-51.102 13.076-13.078 31.147-21.158 51.095-21.158 39.894 0 72.25 32.341 72.25 72.26v67.467a4.98 4.98 0 0 0 8.508 3.511 4.95 4.95 0 0 0 1.448-3.511V-145.3c23.495 0 44.763 9.53 60.18 24.929 15.396 15.399 24.925 36.687 24.925 60.185C24.925-36.687 15.396-15.399 0 0" clip-path="url(#e)" style="fill:#fbf390;fill-opacity:1;fill-rule:nonzero;stroke:none" transform="matrix(1.33333 0 0 -1.33333 2373.14 1196.505)"/>
</svg>
